<svg width="54" height="54" viewBox="0 0 54 54" fill="none" xmlns="http://www.w3.org/2000/svg">
<circle cx="27" cy="27" r="27" fill="#FF6600"/>
<path d="M41.7275 17.3421C41.3709 16.9868 40.8164 16.9868 40.4599 17.3421L39.0339 18.7632V18.4868C39.0339 17.1447 37.9247 16 36.5383 16H20.4955C19.1487 16 18 17.1053 18 18.4868V34.5132C18 35.8553 19.1091 37 20.4955 37H36.5779C37.9247 37 39.0735 35.8947 39.0735 34.5132V21.2895L41.7671 18.6053C42.084 18.25 42.084 17.6974 41.7275 17.3421ZM37.2513 34.5132C37.2513 34.9079 36.9344 35.2237 36.5383 35.2237H20.4955C20.0994 35.2237 19.7825 34.9079 19.7825 34.5132V18.4868C19.8221 18.1316 20.0994 17.8158 20.4955 17.8158H36.5779C36.974 17.8158 37.2909 18.1316 37.2909 18.5263V20.5789L33.2109 24.6053L30.755 22.1579C30.3985 21.8026 29.8439 21.8026 29.4874 22.1579C29.1309 22.5132 29.1309 23.0658 29.4874 23.4211L32.5771 26.5C32.5771 26.5 32.6167 26.5395 32.6564 26.5395C32.696 26.5789 32.696 26.5789 32.7356 26.6184C32.7752 26.6184 32.7752 26.6579 32.8148 26.6579C32.8544 26.6579 32.8544 26.6974 32.894 26.6974C32.9336 26.6974 32.9732 26.7368 33.0129 26.7368C33.0525 26.7368 33.0525 26.7368 33.0921 26.7368C33.1317 26.7368 33.2109 26.7368 33.2505 26.7368C33.2901 26.7368 33.3694 26.7368 33.409 26.7368C33.4486 26.7368 33.4882 26.6974 33.5674 26.6974C33.5674 26.6974 33.5674 26.6974 33.607 26.6974C33.6466 26.6974 33.6863 26.6579 33.7259 26.6184C33.7259 26.6184 33.7655 26.6184 33.7655 26.5789C33.8051 26.5395 33.8447 26.5395 33.8843 26.5L37.2909 23.1053V34.5132H37.2513Z" fill="white"/>
</svg>
