<svg width="54" height="54" viewBox="0 0 54 54" fill="none" xmlns="http://www.w3.org/2000/svg">
<circle cx="27" cy="27" r="27" fill="#FF6600"/>
<path d="M31.5716 28.1087H27.9382V24.4255C27.9382 23.9503 27.539 23.5146 27.0199 23.5146C26.5408 23.5146 26.1016 23.9107 26.1016 24.4255V28.1087H25.9818C25.5027 28.1087 25.0635 28.5047 25.0635 29.0196C25.0635 29.5345 25.4628 29.9305 25.9818 29.9305H26.1016V30.0493C26.1016 30.5245 26.5009 30.9602 27.0199 30.9602C27.499 30.9602 27.9382 30.5642 27.9382 30.0493V29.9305H31.5716C32.0508 29.9305 32.49 29.5345 32.49 29.0196C32.49 28.5047 32.0508 28.1087 31.5716 28.1087Z" fill="white"/>
<path d="M38 21.8911C38 19.7129 36.2432 17.9703 34.0472 17.9703C33.0091 17.9703 32.0508 18.3663 31.3321 19.0396C30.2541 18.5644 29.1361 18.2475 27.8984 18.1683V16.8218H29.0163C29.4955 16.8218 29.9347 16.4257 29.9347 15.9109C29.9347 15.396 29.5354 15 29.0163 15H24.9837C24.5045 15 24.0653 15.396 24.0653 15.9109C24.0653 16.4257 24.4646 16.8218 24.9837 16.8218H26.1016V18.2079C24.9038 18.3267 23.7459 18.604 22.6679 19.0792C21.9492 18.4059 20.9909 18.0099 19.9528 18.0099C17.7568 18.0099 16 19.7525 16 21.9307C16 23 16.4392 24.0297 17.2377 24.7426C16.7586 25.9307 16.4791 27.2376 16.4791 28.5842C16.4791 34.3267 21.1906 39 26.98 39C32.7695 39 37.4809 34.3267 37.4809 28.5842C37.4809 27.2376 37.2015 25.9307 36.7223 24.7426C37.5608 23.9901 38 22.9604 38 21.8911ZM34.0472 19.7525C35.245 19.7525 36.2033 20.703 36.2033 21.8911C36.2033 22.2871 36.0835 22.6832 35.8838 23C35.1252 21.8119 34.167 20.8218 33.0091 20.0297C33.3285 19.8317 33.6878 19.7525 34.0472 19.7525ZM17.8367 21.8911C17.8367 20.703 18.7949 19.7525 19.9927 19.7525C20.3521 19.7525 20.7114 19.8317 21.0309 20.0297C19.873 20.8218 18.9147 21.8515 18.1561 23C17.9564 22.6436 17.8367 22.2871 17.8367 21.8911ZM27.02 37.2178C22.2287 37.2178 18.3158 33.3366 18.3158 28.5842C18.3158 23.8317 22.2287 19.9505 27.02 19.9505C31.8113 19.9505 35.7241 23.8317 35.7241 28.5842C35.7241 33.3366 31.8113 37.2178 27.02 37.2178Z" fill="white"/>
</svg>
