<svg width="54" height="54" viewBox="0 0 54 54" fill="none" xmlns="http://www.w3.org/2000/svg">
<circle cx="27" cy="27" r="27" fill="#FF6600"/>
<path d="M35.5714 17.2791L27.5159 15.0595C27.1984 14.9802 26.8413 14.9802 26.5238 15.0595L18.4286 17.2791C17.5952 17.5169 17 18.27 17 19.142V25.0083C17 31.1519 20.6508 36.5822 26.2857 38.8415C26.5238 38.9207 26.7619 39 27 39C27.2381 39 27.4762 38.9604 27.7143 38.8415C33.3492 36.5822 37 31.1123 37 24.9686V19.142C37 18.27 36.4048 17.5169 35.5714 17.2791ZM35.2143 24.9686C35.2143 30.2799 31.9206 35.1949 27.0794 37.1767C27.0397 37.1767 27 37.1767 26.9603 37.1767C22 35.1949 18.7857 30.3988 18.7857 25.0083V19.142C18.7857 19.1024 18.8254 19.0231 18.8651 19.0231L26.9603 16.8035H27C27 16.8035 27 16.8035 27.0397 16.8035L35.1349 19.0231C35.1746 19.0231 35.2143 19.1024 35.2143 19.142V24.9686Z" fill="white"/>
<path d="M31.4842 23.2638L26.008 27.8617L23.5476 25.8006C23.1508 25.4835 22.5953 25.5231 22.2778 25.9195C21.9603 26.3159 22 26.8708 22.3968 27.1879L25.4127 29.7246C25.5715 29.8832 25.7699 29.9228 25.9683 29.9228C26.1667 29.9228 26.3651 29.8435 26.5238 29.7246L32.6349 24.6115C33.0318 24.2944 33.0715 23.7395 32.754 23.3431C32.4365 22.9864 31.8413 22.9467 31.4842 23.2638Z" fill="white"/>
</svg>
