<svg width="32" height="32" viewBox="0 0 32 32" fill="none" xmlns="http://www.w3.org/2000/svg">
<circle cx="16" cy="16" r="15" stroke="#FF6600" stroke-width="2"/>
<path d="M23.6413 20.6447L21.1703 18.1734C20.6782 17.6833 19.8631 17.6982 19.3538 18.2076L18.109 19.4522C18.0303 19.4089 17.9489 19.3636 17.8633 19.3156C17.0772 18.88 16.0012 18.283 14.869 17.15C13.7335 16.0145 13.1359 14.9369 12.699 14.1503C12.6529 14.067 12.6087 13.9866 12.5651 13.9103L13.4006 13.076L13.8113 12.6648C14.3214 12.1545 14.3355 11.3397 13.8445 10.8481L11.3735 8.37663C10.8825 7.8857 10.0671 7.90059 9.557 8.41083L8.86061 9.11122L8.87964 9.13012C8.64613 9.42807 8.451 9.77172 8.30579 10.1423C8.17193 10.4951 8.08859 10.8317 8.05049 11.169C7.72421 13.8738 8.96026 16.3459 12.3147 19.7004C16.9516 24.337 20.6884 23.9867 20.8496 23.9696C21.2007 23.9277 21.5372 23.8438 21.8791 23.711C22.2465 23.5675 22.5899 23.3726 22.8877 23.1396L22.9029 23.1531L23.6084 22.4623C24.1174 21.9522 24.1321 21.1371 23.6413 20.6447Z" fill="#FF6600"/>
</svg>
