<svg width="54" height="54" viewBox="0 0 54 54" fill="none" xmlns="http://www.w3.org/2000/svg">
<circle cx="27" cy="27" r="27" fill="#FF6600"/>
<path d="M36.769 18.0445H32.9567V16.2257C32.9567 15.5535 32.4007 15 31.7256 15H22.2744C21.5993 15 21.0433 15.5535 21.0433 16.2257V18.0445H17.231C16.5162 18.0445 16 18.5585 16 19.2702V19.5865C16 22.5124 18.1841 24.9242 21.0433 25.3591V25.4778C21.0433 28.4036 23.2274 30.855 26.0866 31.29V37.1812H22.9495C22.4729 37.1812 22.0361 37.5766 22.0361 38.0906C22.0361 38.6046 22.4332 39 22.9495 39H31.0505C31.5271 39 31.9639 38.6046 31.9639 38.0906C31.9639 37.5766 31.5668 37.1812 31.0505 37.1812H27.9134V31.2504C29.1841 31.0527 30.3755 30.4992 31.2888 29.5502C32.4007 28.4432 32.9964 26.9802 32.9567 25.4382V25.3196C35.8159 24.8847 38 22.4728 38 19.547V19.2306C38 18.5585 37.4838 18.0445 36.769 18.0445ZM17.787 19.8237H21.0433V23.5404C19.2563 23.1845 17.9061 21.6425 17.787 19.8237ZM31.1697 25.4778C31.1697 26.5453 30.7726 27.5733 30.018 28.3245C29.2238 29.1153 28.1516 29.5502 27 29.5502C24.6968 29.5502 22.8303 27.7315 22.8303 25.4778V25.4382V16.8188H31.1697V25.4382V25.4778ZM32.9567 23.5404V19.8237H36.213C36.0939 21.6425 34.7437 23.1845 32.9567 23.5404Z" fill="white"/>
</svg>
